<svg width="70" height="38" viewBox="0 0 70 38" fill="none" xmlns="http://www.w3.org/2000/svg">
<path d="M8 17H29M8 17V24M8 17V0M29 17H70M29 17V18M29 17L29 11.9999C29.0001 9.99992 28.0001 8.99992 27.5001 8.49992C27.0001 7.99992 26.0001 6.99998 23.9999 6.99998H15.0001C15.0001 6.99998 12.5812 6.99998 10.5001 8.50023C8.41901 10.0005 8.00009 11.9993 8.00009 11.9993M8 32H63M63 32H69M63 32V38M63 32V31M69 32V33M69 32V24M8 24H69M8 24V25M69 24V18M1 25V24.0015M1 24.0015C1.0001 25.5018 1.00028 28.0004 2 29.5C3.00006 31.0001 4.0001 32.0001 7 32M1 24.0015V0M7 38V32M7 32V31M1 1C3.73367 1 5.26633 1 8 1" stroke="black" stroke-width="2"/>
</svg>
