<svg width="70" height="38" viewBox="0 0 70 38" fill="none" xmlns="http://www.w3.org/2000/svg">
<path fill-rule="evenodd" clip-rule="evenodd" d="M2 2V24.0014C2 24.0015 2 24.0014 2 24.0014C2.00005 24.7576 2.00121 25.6978 2.11741 26.6269C2.23567 27.5724 2.46068 28.3882 2.83205 28.9453C3.30872 29.6603 3.70554 30.1289 4.25393 30.4488C4.79977 30.7672 5.60635 31 6.99915 31C6.99942 31 6.99887 31 6.99915 31H68V25H7V2H2ZM0 0V25H0.00767684C0.0198417 25.5751 0.0513257 26.2231 0.132873 26.8751C0.264662 27.9289 0.539598 29.1122 1.16795 30.0547C1.69134 30.8398 2.29457 31.6212 3.24619 32.1764C3.99083 32.6107 4.88115 32.8688 6 32.9612V38H8V33H62V38H64V33H70V16H30V11.9999C30 12 30 11.9999 30 11.9999C30.0001 9.59279 28.7621 8.34775 28.2072 7.79281C27.6522 7.23782 26.4072 5.99998 23.9999 5.99998H15.0001V6.99998C15.0001 5.99998 15.0004 5.99998 15.0001 5.99998L14.9972 5.99998L14.9935 6L14.9832 6.00007L14.9523 6.00055C14.9272 6.00105 14.893 6.002 14.8504 6.00378C14.7653 6.00733 14.6465 6.0142 14.4996 6.02748C14.2063 6.054 13.7975 6.10638 13.3186 6.21022C12.3671 6.41653 11.1012 6.83413 9.91532 7.68904C9.57249 7.93619 9.26877 8.19551 9 8.45847V0H0ZM9 12.1269V16H28V11.9999C28.0001 10.4141 27.2447 9.65868 26.7988 9.21287L26.7872 9.2012C26.3414 8.7554 25.586 7.99998 23.9999 7.99998L15.0012 7.99998L15.0028 7.99998L14.9925 8.00014C14.9812 8.00037 14.9614 8.00089 14.9338 8.00204C14.8785 8.00435 14.792 8.0092 14.6797 8.01936C14.4544 8.03973 14.1284 8.08111 13.7424 8.1648C12.9642 8.33356 11.9801 8.66608 11.0849 9.31142C10.1925 9.95476 9.66098 10.7011 9.35292 11.2813C9.19877 11.5716 9.1017 11.8184 9.04469 11.9859C9.02529 12.0429 9.01062 12.0903 9 12.1269ZM9 18V23H68V18H9ZM15.0028 7.99998C15.0033 7.99998 15.0034 7.99997 15.0028 7.99998Z" fill="black"/>
</svg>
