<svg width="67" height="67" viewBox="0 0 67 67" fill="none" xmlns="http://www.w3.org/2000/svg">
<path d="M31.173 32.548L18.3 19.682H0L12.863 32.548H31.173ZM12.863 34.463L0 47.32H18.3L31.173 34.464L12.863 34.463ZM19.621 18.3L32.495 31.155V12.866L19.62 0L19.621 18.3ZM19.623 67L32.497 54.145V35.845L19.623 48.711V67ZM47.371 0L34.5 12.866V31.156L47.371 18.299V0ZM54.129 32.548L67 19.682H48.694L35.822 32.548H54.129ZM34.5 54.145L47.371 67V48.711L34.5 35.845V54.145ZM35.822 34.463L48.693 47.32H67L54.13 34.463H35.822Z" fill="#792423"/>
</svg>
