<svg xmlns="http://www.w3.org/2000/svg" xmlns:xlink="http://www.w3.org/1999/xlink">
	<g id="logo-text" viewBox="0 0 142 27">
		<path d="M22.5 4.2C21.4 3 20 2.1 18.4 1.4 16.8.7 15 .4 13 .4c-2 0-3.7.3-5.4 1-1.6.7-3 1.6-4.1 2.8-1.1 1.2-2 2.6-2.6 4.2C.3 10 0 11.8 0 13.6c0 1.9.3 3.6.9 5.2.6 1.6 1.5 3 2.6 4.2 1.1 1.2 2.5 2.1 4.1 2.8 1.6.7 3.4 1 5.4 1 2 0 3.7-.3 5.4-1 1.6-.7 3-1.6 4.1-2.8 1.1-1.2 2-2.6 2.6-4.2.6-1.6.9-3.3.9-5.2 0-1.9-.3-3.6-.9-5.2-.6-1.6-1.4-3-2.6-4.2Zm0 13.7c-.5 1.3-1.2 2.4-2.2 3.3-.9.9-2 1.7-3.3 2.2-1.3.5-2.6.8-4.1.8-1.5 0-2.8-.3-4.1-.8-1.3-.5-2.3-1.3-3.3-2.2-.9-.9-1.6-2.1-2.2-3.3-.5-1.3-.8-2.7-.8-4.2s.3-3 .8-4.2c.5-1.3 1.2-2.4 2.2-3.3.9-.9 2-1.7 3.3-2.2 1.3-.5 2.6-.8 4.1-.8 1.5 0 2.8.3 4.1.8 1.3.5 2.3 1.3 3.3 2.2.9.9 1.6 2.1 2.2 3.3.5 1.3.8 2.7.8 4.2s-.2 2.9-.8 4.2ZM43.8 13.3c-.8-.6-1.8-1.2-3-1.5-1.2-.4-2.6-.5-4.2-.5h-2.8V3.4h10.1V.8H31.1v25.7h5.6c1.6 0 3-.2 4.2-.6 1.2-.4 2.2-.9 3-1.6.8-.7 1.4-1.5 1.8-2.4.4-.9.6-2 .6-3.2 0-1.2-.2-2.2-.6-3.1-.5-.9-1.1-1.6-1.9-2.3ZM43 21c-.3.6-.7 1.2-1.3 1.6-.6.4-1.3.8-2.1 1-.9.2-1.9.3-3 .3h-2.7V13.8h2.6c1.3 0 2.4.1 3.2.4.9.3 1.6.6 2.2 1 .6.4.9 1 1.2 1.6.2.6.4 1.3.4 2-.1.9-.2 1.6-.5 2.2ZM72 4.3c-1-1.2-2.3-2.1-3.8-2.8C66.7.8 64.9.4 62.9.4c-1.7 0-3.3.3-4.8.9-1.5.6-2.9 1.5-4.1 2.6C52.8 5 51.8 6.4 51.1 8c-.7 1.6-1.1 3.5-1.1 5.5 0 2.1.3 3.9 1 5.6.7 1.7 1.6 3.1 2.8 4.2 1.2 1.2 2.6 2.1 4.2 2.7 1.6.7 3.3 1 5.2 1 2.1 0 4.1-.4 6-1.2 1.9-.8 3.6-2 5-3.7l-2-1.8c-1 1.2-2.3 2.1-3.8 2.9-1.5.7-3.2 1.1-5 1.1-1.4 0-2.7-.3-4-.8-1.3-.5-2.4-1.2-3.3-2.2-.9-.9-1.7-2.1-2.2-3.4-.5-1.2-.7-2.4-.8-3.8h22.1v-1.6c0-1.5-.3-2.9-.8-4.4-.6-1.4-1.3-2.7-2.4-3.8ZM55.9 6.1c.9-.9 1.9-1.6 3.1-2.1 1.2-.5 2.5-.7 3.8-.7 1.5 0 2.8.3 3.9.8s2.1 1.2 2.9 2.1c.8.9 1.4 1.9 1.8 3 .3.7.4 1.4.5 2.2H53.2c.1-.7.3-1.3.5-1.9.6-1.4 1.3-2.5 2.2-3.4ZM93.5 3c-.7-.7-1.6-1.2-2.6-1.6-1-.4-2.2-.6-3.4-.6h-7v25.7h2.7V15.9h4.3c1.3 0 2.4-.2 3.4-.6 1-.4 1.9-.9 2.6-1.6.7-.7 1.3-1.5 1.7-2.4.4-.9.6-1.9.6-3 0-1-.2-2-.6-2.9-.4-1-1-1.8-1.7-2.4Zm-.9 7.3c-.3.6-.6 1.1-1.1 1.6-.5.5-1.1.8-1.8 1.1-.7.3-1.5.4-2.4.4h-4.1v-10h4.1c.9 0 1.7.1 2.4.4.7.3 1.3.6 1.8 1.1.5.5.9 1 1.1 1.6.3.6.4 1.2.4 1.9 0 .6-.2 1.3-.4 1.9ZM121 4.3c-1-1.2-2.3-2.1-3.8-2.8-1.5-.7-3.3-1.1-5.3-1.1-1.7 0-3.3.3-4.8.9-1.5.6-2.9 1.5-4.1 2.6-1.2 1.1-2.2 2.5-2.9 4.1-.7 1.6-1.1 3.5-1.1 5.5 0 2.1.3 3.9 1 5.6.7 1.7 1.6 3.1 2.8 4.2 1.2 1.2 2.6 2.1 4.2 2.7 1.6.7 3.3 1 5.2 1 2.1 0 4.1-.4 6-1.2 1.9-.8 3.6-2 5-3.7l-2-1.8c-1 1.2-2.3 2.1-3.8 2.9-1.5.7-3.2 1.1-5 1.1-1.4 0-2.7-.3-4-.8-1.3-.5-2.4-1.2-3.3-2.2-.9-.9-1.7-2.1-2.2-3.4-.5-1.2-.7-2.4-.8-3.8h22.1v-1.6c0-1.5-.3-2.9-.8-4.4-.6-1.4-1.3-2.7-2.4-3.8Zm-16.1 1.8c.9-.9 1.9-1.6 3.1-2.1 1.2-.5 2.5-.7 3.8-.7 1.5 0 2.8.3 3.9.8s2.1 1.2 2.9 2.1c.8.9 1.4 1.9 1.8 3 .3.7.4 1.4.5 2.2h-18.8c.1-.7.3-1.3.5-1.9.7-1.4 1.4-2.5 2.3-3.4ZM129.5.8v25.7h2.7V3.4h9.8V.8h-12.5Z" />
	</g>
</svg>