<svg width="51" height="51" viewBox="0 0 51 51" fill="none" xmlns="http://www.w3.org/2000/svg">
<path fill-rule="evenodd" clip-rule="evenodd" d="M5.74183 23V25H7.74183H10.3754H12.3754V23V18.8636H13.9549C15.5396 18.8636 17.021 18.5752 18.2908 17.8715L18.2945 17.8694C19.5086 17.1933 20.4694 16.2418 21.106 15.0187C21.7195 13.8451 22.006 12.5561 22.006 11.196C22.006 9.84412 21.7235 8.56248 21.117 7.39516C20.4822 6.16734 19.524 5.21153 18.3078 4.53757C17.0369 3.8333 15.5521 3.54545 13.9634 3.54545H7.74183H5.74183V5.54545V23ZM10.3754 16.8636V18.8636V21V23H9.74183H8.37535H7.74183V21V18.8636V16.8636V14.6307V12.6307V7.54545V5.54545H9.74183H13.9634C15.3214 5.54545 16.4464 5.79261 17.3384 6.28693C18.2305 6.78125 18.8981 7.45739 19.3413 8.31534C19.7844 9.16761 20.006 10.1278 20.006 11.196C20.006 12.2699 19.7816 13.2358 19.3327 14.0938C18.8896 14.946 18.2191 15.6222 17.3214 16.1222C16.4293 16.6165 15.3072 16.8636 13.9549 16.8636H12.3754H11.6765H10.3754ZM10.3754 14.6307V12.6307V9.80398V7.80398H12.3754H13.6822C14.5572 7.80398 15.2617 7.94886 15.7958 8.23864C16.3356 8.52841 16.7305 8.92898 16.9805 9.44034C17.2305 9.9517 17.3555 10.5369 17.3555 11.196C17.3555 11.8551 17.2305 12.4432 16.9805 12.9602C16.7305 13.4773 16.3384 13.8864 15.8043 14.1875C15.2702 14.483 14.5742 14.6307 13.7163 14.6307H12.3754H11.6765H10.3754ZM12.3754 12.6307V9.80398H13.6822C14.3612 9.80398 14.7013 9.92024 14.842 9.99657L14.842 9.99658L14.8498 10.0008C15.0502 10.1083 15.132 10.2131 15.1837 10.3188C15.2804 10.5165 15.3555 10.7934 15.3555 11.196C15.3555 11.5981 15.2805 11.8815 15.1799 12.0896C15.1205 12.2125 15.0287 12.3272 14.83 12.4408C14.685 12.5191 14.3562 12.6307 13.7163 12.6307H12.3754ZM3 0C1.34315 0 0 1.34315 0 3V26C0 27.6569 1.34315 29 3 29H15.1322L14 32C11.7908 32 10 33.7909 10 36V42C10 43.8652 11.2767 45.4323 13.0038 45.875C13.0013 45.9163 13 45.958 13 46V49C13 50.1046 13.8954 51 15 51H19C20.1046 51 21 50.1046 21 49V46H40V49C40 50.1046 40.8954 51 42 51H46C47.1046 51 48 50.1046 48 49V46C48 45.958 47.9987 45.9163 47.9962 45.875C49.7233 45.4323 51 43.8652 51 42V36C51 33.7909 49.2091 32 47 32H46.9881L46.9984 31.996L42.2048 19.743C42.0999 19.4554 41.8239 19.25 41.5 19.25H29V3C29 1.34315 27.6569 0 26 0H3ZM29 20.75V23.5H42.0639L40.9881 20.75H29ZM29 24.5V26C29 27.6569 27.6569 29 26 29H16.7354L15.6032 32H45.3893L42.4551 24.5H29ZM2 3C2 2.44772 2.44772 2 3 2H26C26.5523 2 27 2.44772 27 3V26C27 26.5523 26.5523 27 26 27H3C2.44772 27 2 26.5523 2 26V3ZM47 34H14C12.8954 34 12 34.8954 12 36V42C12 43.1046 12.8954 44 14 44H15H19H42H46H47C48.1046 44 49 43.1046 49 42V36C49 34.8954 48.1046 34 47 34ZM41.5 49V46H46.5V49C46.5 49.2761 46.2761 49.5 46 49.5H42C41.7239 49.5 41.5 49.2761 41.5 49ZM14.5 46V49C14.5 49.2761 14.7239 49.5 15 49.5H19C19.2761 49.5 19.5 49.2761 19.5 49V46H14.5ZM19 39C19 40.1046 18.1046 41 17 41C15.8954 41 15 40.1046 15 39C15 37.8954 15.8954 37 17 37C18.1046 37 19 37.8954 19 39ZM20 39C20 40.6569 18.6569 42 17 42C15.3431 42 14 40.6569 14 39C14 37.3431 15.3431 36 17 36C18.6569 36 20 37.3431 20 39ZM21.25 37.25C21.25 37.6642 21.5858 38 22 38H39C39.4142 38 39.75 37.6642 39.75 37.25C39.75 36.8358 39.4142 36.5 39 36.5H22C21.5858 36.5 21.25 36.8358 21.25 37.25ZM44 41C45.1046 41 46 40.1046 46 39C46 37.8954 45.1046 37 44 37C42.8954 37 42 37.8954 42 39C42 40.1046 42.8954 41 44 41ZM44 42C45.6569 42 47 40.6569 47 39C47 37.3431 45.6569 36 44 36C42.3431 36 41 37.3431 41 39C41 40.6569 42.3431 42 44 42ZM22 39.5C21.5858 39.5 21.25 39.8358 21.25 40.25C21.25 40.6642 21.5858 41 22 41H39C39.4142 41 39.75 40.6642 39.75 40.25C39.75 39.8358 39.4142 39.5 39 39.5H22Z" fill="black"/>
</svg>
