<svg width="50" height="52" viewBox="0 0 50 52" fill="none" xmlns="http://www.w3.org/2000/svg">
<path d="M8.99976 51C8.99976 51.5523 9.44747 52 9.99976 52C10.552 52 10.9998 51.5523 10.9998 51H8.99976ZM48.9998 26H49.9998L48.9998 25V26ZM0.999896 26V25L-0.000103637 26L0.999896 26ZM0.999756 37L-0.000244141 37V37H0.999756ZM38.9998 51C38.9998 51.5523 39.4475 52 39.9998 52C40.552 52 40.9998 51.5523 40.9998 51H38.9998ZM4.99976 26V27H6.99976V26H4.99976ZM5.99976 6L5.02961 5.75746C5.00978 5.83678 4.99976 5.91824 4.99976 6H5.99976ZM12.4998 1L12.4998 0L12.4998 1ZM7.99976 2.5L8.70686 3.20711L8.70686 3.20711L7.99976 2.5ZM18.9998 7L18.6835 7.94868C18.8888 8.01711 19.1107 8.01711 19.316 7.94868L18.9998 7ZM16.9998 3L16.2926 3.70711L16.2926 3.70711L16.9998 3ZM12.9998 14L12.0192 14.1961L12.18 15H12.9998V14ZM24.9998 14V15H25.8195L25.9803 14.1961L24.9998 14ZM14.9998 9L15.7069 9.70711L15.7069 9.70711L14.9998 9ZM10.9998 51V46H8.99976V51H10.9998ZM48.9998 25H0.999896V27H48.9998V25ZM47.9998 26V37H49.9998V26H47.9998ZM-0.000103637 26L-0.000244141 37L1.99976 37L1.9999 26L-0.000103637 26ZM9.99976 47H39.9998V45H9.99976V47ZM40.9998 51V46H38.9998V51H40.9998ZM-0.000244141 37C-0.000244141 39.3729 1.44819 41.8627 3.29265 43.7071C5.13711 45.5516 7.62689 47 9.99976 47L9.99976 45C8.37262 45 6.36241 43.9484 4.70686 42.2929C3.05132 40.6373 1.99976 38.6271 1.99976 37H-0.000244141ZM47.9998 37C47.9998 38.6271 46.9482 40.6373 45.2927 42.2929C43.6371 43.9484 41.6269 45 39.9998 45L39.9998 47C42.3726 47 44.8624 45.5516 46.7069 43.7071C48.5513 41.8627 49.9998 39.3729 49.9998 37H47.9998ZM6.99976 26V6H4.99976V26H6.99976ZM12.4998 1C12.4998 0 12.4995 2.98695e-08 12.4992 1.30694e-07C12.4991 1.85126e-07 12.4988 3.77457e-07 12.4986 5.68962e-07C12.4982 9.79035e-07 12.4978 1.64028e-06 12.4972 2.64495e-06C12.4962 4.65427e-06 12.495 8.03741e-06 12.4936 1.35329e-05C12.4908 2.45234e-05 12.4873 4.39652e-05 12.4831 7.77735e-05C12.4747 0.000145383 12.4633 0.000270493 12.4493 0.000500553C12.4212 0.000960534 12.3823 0.00184093 12.3335 0.00352368C12.2359 0.00688605 12.0987 0.0134703 11.9309 0.026383C11.5965 0.0521028 11.1334 0.103466 10.6161 0.206919C9.61994 0.406159 8.25519 0.83035 7.29265 1.79289L8.70686 3.20711C9.24432 2.66965 10.1296 2.34384 11.0084 2.16808C11.4286 2.08403 11.8092 2.04165 12.0843 2.02049C12.2211 2.00997 12.33 2.00483 12.4024 2.00234C12.4385 2.00109 12.4655 2.0005 12.4821 2.00023C12.4904 2.0001 12.4961 2.00004 12.4991 2.00001C12.5006 2 12.5014 2 12.5015 2C12.5016 2 12.5015 2 12.5012 2C12.501 2 12.5008 2 12.5006 2C12.5005 2 12.5003 2 12.5002 2C12.5 2 12.4998 2 12.4998 1ZM7.29265 1.79289C6.43014 2.6554 5.86968 3.64456 5.52689 4.3987C5.3539 4.77927 5.23212 5.10937 5.15264 5.34783C5.11281 5.46731 5.08338 5.56446 5.06326 5.63426C5.0532 5.66918 5.04546 5.69732 5.03989 5.71804C5.03711 5.72841 5.03488 5.73693 5.03317 5.74352C5.03232 5.74682 5.03159 5.74964 5.031 5.75196C5.03071 5.75313 5.03044 5.75417 5.03021 5.75508C5.0301 5.75554 5.02999 5.75597 5.02989 5.75637C5.02984 5.75657 5.02977 5.75684 5.02975 5.75694C5.02968 5.75721 5.02961 5.75746 5.99976 6C6.9699 6.24254 6.96984 6.24278 6.96978 6.24301C6.96976 6.24308 6.9697 6.24331 6.96967 6.24345C6.9696 6.24372 6.96954 6.24397 6.96948 6.24419C6.96938 6.24462 6.9693 6.24493 6.96925 6.24513C6.96915 6.24552 6.96916 6.24544 6.9693 6.24491C6.96958 6.24385 6.97033 6.24095 6.97158 6.2363C6.97408 6.227 6.97854 6.2107 6.98508 6.188C6.99817 6.14257 7.01951 6.07176 7.05 5.98029C7.11114 5.79688 7.20811 5.53323 7.34762 5.2263C7.62983 4.60544 8.06937 3.8446 8.70686 3.20711L7.29265 1.79289ZM18.9998 7C19.9998 7 19.9998 6.9995 19.9998 6.999C19.9998 6.99882 19.9998 6.99831 19.9998 6.99795C19.9998 6.99724 19.9998 6.99649 19.9997 6.99571C19.9997 6.99416 19.9997 6.99248 19.9997 6.99067C19.9997 6.98705 19.9996 6.98294 19.9996 6.97833C19.9994 6.96911 19.9992 6.95792 19.9987 6.94481C19.9979 6.9186 19.9964 6.8847 19.9936 6.84364C19.9882 6.76154 19.9778 6.65056 19.9585 6.51483C19.9197 6.24353 19.8445 5.87189 19.6984 5.43377C19.4052 4.55407 18.829 3.41506 17.7069 2.29289L16.2926 3.70711C17.1705 4.58494 17.5943 5.44593 17.8011 6.06623C17.905 6.37811 17.9548 6.63147 17.9786 6.79767C17.9904 6.88069 17.9957 6.94158 17.9981 6.97668C17.9992 6.9942 17.9997 7.00523 17.9998 7.00929C17.9999 7.01132 17.9998 7.0116 17.9998 7.01007C17.9998 7.00931 17.9998 7.00809 17.9998 7.00642C17.9998 7.00558 17.9998 7.00463 17.9998 7.00356C17.9998 7.00302 17.9998 7.00246 17.9998 7.00187C17.9998 7.00157 17.9998 7.0011 17.9998 7.00096C17.9998 7.00048 17.9998 7 18.9998 7ZM17.7069 2.29289C16.557 1.14306 15.2671 0.572096 14.2745 0.288476C13.7772 0.146408 13.3485 0.0745707 13.0385 0.0380994C12.8831 0.0198256 12.7566 0.0103141 12.6651 0.00536399C12.6192 0.0028872 12.5821 0.0015469 12.5543 0.000825441C12.5404 0.000464622 12.5288 0.000258302 12.5197 0.000142166C12.5152 8.40935e-05 12.5112 4.85544e-05 12.5079 2.75323e-05C12.5062 1.70209e-05 12.5047 1.0138e-05 12.5034 5.88289e-06C12.5027 3.75531e-06 12.502 2.28462e-06 12.5014 1.34581e-06C12.5011 9.109e-07 12.5007 4.46433e-07 12.5006 3.20871e-07C12.5002 7.65113e-08 12.4998 0 12.4998 1C12.4998 2 12.4994 2 12.499 2C12.4989 2 12.4985 2 12.4983 2C12.4979 2 12.4974 2 12.4971 2C12.4963 1.99999 12.4957 1.99999 12.4953 1.99999C12.4944 1.99998 12.494 1.99998 12.4943 1.99998C12.4947 1.99999 12.4974 2.00002 12.5024 2.00015C12.5122 2.00041 12.5307 2.00102 12.5571 2.00245C12.6101 2.00531 12.6945 2.01142 12.8048 2.0244C13.026 2.05043 13.3473 2.10359 13.725 2.21152C14.4824 2.4279 15.4425 2.85694 16.2926 3.70711L17.7069 2.29289ZM12.9998 15H24.9998V13H12.9998V15ZM12.9998 14C13.9803 13.8039 13.9804 13.8044 13.9805 13.8049C13.9806 13.8051 13.9807 13.8056 13.9807 13.806C13.9809 13.8066 13.981 13.8073 13.9811 13.8079C13.9813 13.809 13.9815 13.8101 13.9817 13.811C13.9821 13.8128 13.9823 13.814 13.9824 13.8147C13.9827 13.816 13.9825 13.8151 13.982 13.8121C13.981 13.8059 13.9787 13.7912 13.976 13.7685C13.9706 13.723 13.9633 13.6459 13.9603 13.5417C13.9543 13.3331 13.9658 13.0187 14.0428 12.6336C14.1949 11.8732 14.6079 10.806 15.7069 9.70711L14.2927 8.29289C12.8916 9.69396 12.3046 11.1268 12.0817 12.2414C11.9712 12.7938 11.9514 13.2607 11.9611 13.5989C11.9659 13.7681 11.9782 13.9059 11.9903 14.0069C11.9963 14.0574 12.0024 14.0988 12.0075 14.1306C12.0101 14.1464 12.0124 14.1599 12.0144 14.1708C12.0154 14.1763 12.0163 14.1812 12.0171 14.1854C12.0175 14.1875 12.0179 14.1894 12.0182 14.1912C12.0184 14.1921 12.0186 14.193 12.0187 14.1938C12.0188 14.1942 12.0189 14.1948 12.0189 14.195C12.0191 14.1956 12.0192 14.1961 12.9998 14ZM15.7069 9.70711C16.8631 8.55089 17.7167 8.15919 18.2004 8.02726C18.4434 7.96099 18.6055 7.95663 18.6829 7.95999C18.7223 7.96171 18.7423 7.96555 18.7423 7.96555C18.7424 7.96557 18.7376 7.96464 18.7278 7.96207C18.7229 7.96078 18.7168 7.95908 18.7094 7.95688C18.7057 7.95578 18.7017 7.95455 18.6974 7.95319C18.6952 7.95251 18.693 7.95179 18.6907 7.95104C18.6895 7.95067 18.6884 7.95028 18.6872 7.94989C18.6866 7.94969 18.6857 7.94939 18.6854 7.94929C18.6844 7.94899 18.6835 7.94868 18.9998 7C19.316 6.05132 19.3151 6.05101 19.3141 6.0507C19.3138 6.05059 19.3129 6.05028 19.3122 6.05007C19.3109 6.04964 19.3096 6.04921 19.3083 6.04878C19.3056 6.04791 19.3028 6.04702 19.2999 6.0461C19.2941 6.04428 19.288 6.04238 19.2814 6.0404C19.2681 6.03646 19.2533 6.03226 19.2368 6.02792C19.2038 6.01924 19.1643 6.01002 19.1185 6.00124C19.0267 5.98367 18.91 5.96798 18.7698 5.96188C18.4877 5.94962 18.1187 5.97651 17.6742 6.09774C16.7829 6.34081 15.6365 6.94911 14.2927 8.29289L15.7069 9.70711ZM24.9998 14C25.9803 14.1961 25.9804 14.1956 25.9806 14.195C25.9806 14.1948 25.9807 14.1942 25.9808 14.1938C25.981 14.193 25.9811 14.1921 25.9813 14.1912C25.9817 14.1894 25.982 14.1875 25.9824 14.1854C25.9832 14.1812 25.9841 14.1763 25.9851 14.1708C25.9871 14.1599 25.9894 14.1464 25.992 14.1306C25.9971 14.0988 26.0032 14.0574 26.0092 14.0069C26.0214 13.9059 26.0336 13.7681 26.0384 13.5989C26.0481 13.2607 26.0283 12.7938 25.9179 12.2414C25.695 11.1268 25.108 9.69396 23.7069 8.29289L22.2927 9.70711C23.3916 10.806 23.8046 11.8732 23.9567 12.6336C24.0337 13.0187 24.0452 13.3331 24.0392 13.5417C24.0363 13.6459 24.0289 13.723 24.0235 13.7685C24.0208 13.7912 24.0185 13.8059 24.0175 13.8121C24.017 13.8151 24.0169 13.816 24.0171 13.8147C24.0172 13.814 24.0174 13.8128 24.0178 13.811C24.018 13.8101 24.0182 13.809 24.0184 13.8079C24.0185 13.8073 24.0186 13.8066 24.0188 13.806C24.0188 13.8056 24.0189 13.8051 24.019 13.8049C24.0191 13.8044 24.0192 13.8039 24.9998 14ZM23.7069 8.29289C22.363 6.94911 21.2166 6.34081 20.3254 6.09774C19.8808 5.97651 19.5118 5.94962 19.2297 5.96188C19.0895 5.96798 18.9728 5.98367 18.881 6.00124C18.8352 6.01002 18.7957 6.01924 18.7627 6.02792C18.7462 6.03226 18.7314 6.03646 18.7182 6.04041C18.7116 6.04238 18.7054 6.04428 18.6996 6.04611C18.6967 6.04702 18.6939 6.04791 18.6912 6.04878C18.6899 6.04921 18.6886 6.04964 18.6873 6.05007C18.6867 6.05028 18.6857 6.05059 18.6854 6.0507C18.6845 6.05101 18.6835 6.05132 18.9998 7C19.316 7.94868 19.3151 7.94899 19.3142 7.94929C19.3139 7.94939 19.3129 7.94969 19.3123 7.94989C19.3112 7.95028 19.31 7.95067 19.3088 7.95104C19.3065 7.95179 19.3043 7.95251 19.3021 7.95319C19.2978 7.95455 19.2938 7.95578 19.2901 7.95688C19.2827 7.95908 19.2766 7.96078 19.2717 7.96207C19.2619 7.96464 19.2571 7.96557 19.2572 7.96555C19.2572 7.96555 19.2772 7.96171 19.3166 7.95999C19.394 7.95663 19.5561 7.96099 19.7991 8.02726C20.2828 8.15919 21.1364 8.55089 22.2927 9.70711L23.7069 8.29289Z" fill="black"/>
</svg>
