<svg width="51" height="51" viewBox="0 0 51 51" fill="none" xmlns="http://www.w3.org/2000/svg">
<path fill-rule="evenodd" clip-rule="evenodd" d="M5.74182 25V3.54541H13.9634C15.5521 3.54541 17.0369 3.83326 18.3078 4.53752C19.524 5.21148 20.4822 6.1673 21.117 7.39512C21.7235 8.56244 22.006 9.84407 22.006 11.196C22.006 12.5561 21.7195 13.845 21.106 15.0186C20.4694 16.2417 19.5086 17.1932 18.2945 17.8694L18.2908 17.8715C17.0209 18.5751 15.5396 18.8636 13.9549 18.8636H12.3753V25H5.74182ZM10.3753 16.8636H13.9549C15.3072 16.8636 16.4293 16.6164 17.3214 16.1221C18.2191 15.6221 18.8895 14.946 19.3327 14.0937C19.7816 13.2358 20.006 12.2698 20.006 11.196C20.006 10.1278 19.7844 9.16757 19.3413 8.3153C18.8981 7.45734 18.2305 6.78121 17.3384 6.28689C16.4464 5.79257 15.3214 5.54541 13.9634 5.54541H7.74182V23H10.3753V16.8636ZM10.3753 14.6306H13.7163C14.5742 14.6306 15.2702 14.4829 15.8043 14.1875C16.3384 13.8863 16.7305 13.4772 16.9805 12.9602C17.2305 12.4431 17.3555 11.8551 17.3555 11.196C17.3555 10.5369 17.2305 9.95166 16.9805 9.4403C16.7305 8.92893 16.3356 8.52836 15.7958 8.23859C15.2617 7.94882 14.5572 7.80393 13.6822 7.80393H10.3753V14.6306ZM12.3753 9.80393V12.6306H13.7163C14.3561 12.6306 14.685 12.5191 14.83 12.4408C15.0287 12.3271 15.1205 12.2125 15.1799 12.0896C15.2805 11.8814 15.3555 11.5981 15.3555 11.196C15.3555 10.7933 15.2804 10.5165 15.1837 10.3187C15.132 10.213 15.0502 10.1083 14.8498 10.0007L14.842 9.99654C14.7013 9.92021 14.3612 9.80393 13.6822 9.80393H12.3753Z" fill="black"/>
<path fill-rule="evenodd" clip-rule="evenodd" d="M0 3C0 1.34315 1.34315 0 3 0H26C27.6569 0 29 1.34315 29 3V26C29 27.6569 27.6569 29 26 29H3C1.34315 29 0 27.6569 0 26V3ZM3 2C2.44772 2 2 2.44772 2 3V26C2 26.5523 2.44772 27 3 27H26C26.5523 27 27 26.5523 27 26V3C27 2.44772 26.5523 2 26 2H3Z" fill="black"/>
<path fill-rule="evenodd" clip-rule="evenodd" d="M47 34H14C12.8954 34 12 34.8954 12 36V42C12 43.1046 12.8954 44 14 44H47C48.1046 44 49 43.1046 49 42V36C49 34.8954 48.1046 34 47 34ZM14 32C11.7909 32 10 33.7909 10 36V42C10 44.2091 11.7909 46 14 46H47C49.2091 46 51 44.2091 51 42V36C51 33.7909 49.2091 32 47 32H14Z" fill="black"/>
<path fill-rule="evenodd" clip-rule="evenodd" d="M39 38L22 38V36.5L39 36.5V38Z" fill="black"/>
<path fill-rule="evenodd" clip-rule="evenodd" d="M19 45.5H15C14.7239 45.5 14.5 45.7239 14.5 46V49C14.5 49.2761 14.7239 49.5 15 49.5H19C19.2761 49.5 19.5 49.2761 19.5 49V46C19.5 45.7239 19.2761 45.5 19 45.5ZM15 44C13.8954 44 13 44.8954 13 46V49C13 50.1046 13.8954 51 15 51H19C20.1046 51 21 50.1046 21 49V46C21 44.8954 20.1046 44 19 44H15Z" fill="black"/>
<path fill-rule="evenodd" clip-rule="evenodd" d="M46 45.5H42C41.7239 45.5 41.5 45.7239 41.5 46V49C41.5 49.2761 41.7239 49.5 42 49.5H46C46.2761 49.5 46.5 49.2761 46.5 49V46C46.5 45.7239 46.2761 45.5 46 45.5ZM42 44C40.8954 44 40 44.8954 40 46V49C40 50.1046 40.8954 51 42 51H46C47.1046 51 48 50.1046 48 49V46C48 44.8954 47.1046 44 46 44H42Z" fill="black"/>
<path fill-rule="evenodd" clip-rule="evenodd" d="M17 41C18.1046 41 19 40.1046 19 39C19 37.8954 18.1046 37 17 37C15.8954 37 15 37.8954 15 39C15 40.1046 15.8954 41 17 41ZM17 42C18.6569 42 20 40.6569 20 39C20 37.3431 18.6569 36 17 36C15.3431 36 14 37.3431 14 39C14 40.6569 15.3431 42 17 42Z" fill="black"/>
<path fill-rule="evenodd" clip-rule="evenodd" d="M44 41C45.1046 41 46 40.1046 46 39C46 37.8954 45.1046 37 44 37C42.8954 37 42 37.8954 42 39C42 40.1046 42.8954 41 44 41ZM44 42C45.6569 42 47 40.6569 47 39C47 37.3431 45.6569 36 44 36C42.3431 36 41 37.3431 41 39C41 40.6569 42.3431 42 44 42Z" fill="black"/>
<path fill-rule="evenodd" clip-rule="evenodd" d="M21.25 40.25C21.25 39.8358 21.5858 39.5 22 39.5L39 39.5C39.4142 39.5 39.75 39.8358 39.75 40.25C39.75 40.6642 39.4142 41 39 41L22 41C21.5858 41 21.25 40.6642 21.25 40.25Z" fill="black"/>
<path fill-rule="evenodd" clip-rule="evenodd" d="M21.25 37.25C21.25 36.8358 21.5858 36.5 22 36.5L39 36.5C39.4142 36.5 39.75 36.8358 39.75 37.25C39.75 37.6642 39.4142 38 39 38L22 38C21.5858 38 21.25 37.6642 21.25 37.25Z" fill="black"/>
<path fill-rule="evenodd" clip-rule="evenodd" d="M28.25 20C28.25 19.5858 28.5858 19.25 29 19.25L41.5 19.25C41.9142 19.25 42.25 19.5858 42.25 20C42.25 20.4142 41.9142 20.75 41.5 20.75L29 20.75C28.5858 20.75 28.25 20.4142 28.25 20Z" fill="black"/>
<path fill-rule="evenodd" clip-rule="evenodd" d="M28.5 24C28.5 23.7239 28.7239 23.5 29 23.5L43 23.5C43.2761 23.5 43.5 23.7239 43.5 24C43.5 24.2761 43.2761 24.5 43 24.5L29 24.5C28.7239 24.5 28.5 24.2761 28.5 24Z" fill="black"/>
<path fill-rule="evenodd" clip-rule="evenodd" d="M14.0385 32.0289L15.7504 27.232L17.1631 27.7361L15.4513 32.5331L14.0385 32.0289Z" fill="black"/>
<path fill-rule="evenodd" clip-rule="evenodd" d="M47.2 32.7307L42.2 19.7307L40.8 20.2692L45.8 33.2692L47.2 32.7307Z" fill="black"/>
</svg>
