<svg width="22" height="22" viewBox="0 0 22 22" fill="none" xmlns="http://www.w3.org/2000/svg">
<path d="M22 17.375C22 17.9375 21.75 19.0312 21.5156 19.5469C21.1875 20.3125 20.3125 20.8125 19.6094 21.2031C18.6875 21.7031 17.75 22 16.7031 22C15.25 22 13.9375 21.4063 12.6094 20.9219C11.6563 20.5781 10.7344 20.1563 9.87503 19.625C7.21878 17.9844 4.01565 14.7812 2.37502 12.125C1.84376 11.2656 1.4219 10.3437 1.07814 9.39061C0.59377 8.0625 0 6.75 0 5.29687C0 4.24998 0.296871 3.3125 0.796879 2.39061C1.18751 1.68749 1.68749 0.812492 2.45312 0.484367C2.96874 0.250004 4.06249 0 4.625 0C4.73438 0 4.84375 1.23866e-07 4.95313 0.0468673C5.28125 0.156242 5.62499 0.921867 5.78126 1.23438C6.28127 2.12499 6.76564 3.03125 7.28126 3.90625C7.53126 4.31249 8.00002 4.8125 8.00002 5.29687C8.00002 6.24999 5.17188 7.64061 5.17188 8.48435C5.17188 8.90624 5.56251 9.45312 5.78126 9.82811C7.35938 12.6719 9.32813 14.6406 12.1719 16.2187C12.5469 16.4375 13.0937 16.8281 13.5156 16.8281C14.3594 16.8281 15.75 14 16.7031 14C17.1875 14 17.6875 14.4687 18.0937 14.7187C18.9687 15.2344 19.875 15.7187 20.7656 16.2187C21.0781 16.375 21.8437 16.7187 21.9531 17.0469C22 17.1562 22 17.2656 22 17.375L22 17.375Z" fill="white"/>
</svg>
