<svg xmlns="http://www.w3.org/2000/svg" xmlns:xlink="http://www.w3.org/1999/xlink">
		<g id="ps-logo-static" viewBox="0 0 14 17">
		<path fill="#9BBF2E" d="M11.655 2.079C10.393.742 8.685 0 6.904 0H6.83C3.118 0 .074 3.044 0 6.755v9.503c0 .222.074.37.223.52.297.296.742.296.965 0l3.489-3.416c.668.149 1.41.297 2.078.297h.075c3.711-.074 6.755-3.043 6.83-6.755a6.792 6.792 0 0 0-2.005-4.825ZM6.83 12.62c-.743-.074-1.41-.148-2.079-.297-.223-.074-.445 0-.668.149L1.039 15.44V6.83c.075-3.192 2.599-5.716 5.79-5.716h.075c1.559 0 2.97.668 4.083 1.707 1.04 1.04 1.633 2.524 1.633 4.009a5.896 5.896 0 0 1-5.79 5.79Z" />
		<path fill="#9BBF2E" d="M8.242 4.16c-.149-.074-.297-.074-.371-.074a1.025 1.025 0 0 0-.297.223c-.149.222-.075.594.222.742a1.97 1.97 0 0 1 .817 2.672 1.97 1.97 0 0 1-2.673.817 1.97 1.97 0 0 1-.816-2.672c.148-.297.371-.52.668-.743.223-.074.297-.445.148-.668-.148-.223-.445-.371-.742-.223h-.074c-1.336.965-1.782 2.821-.891 4.232.89 1.41 2.747 1.856 4.231.965 1.485-.89 1.856-2.747.966-4.232-.297-.445-.669-.816-1.188-1.039Z" />
		<path fill="#9BBF2E" d="M6.754 3.418a.507.507 0 0 0-.52.52v2.227c0 .297.223.52.52.52.297 0 .52-.223.52-.52V3.938a.507.507 0 0 0-.52-.52Z" />
	</g>
	</svg>